<svg xmlns="http://www.w3.org/2000/svg" xmlns:xlink="http://www.w3.org/1999/xlink" width="1244.679" height="1249.812" viewBox="0 0 1244.679 1249.812">
  <defs>
    <clipPath id="clip-path">
      <rect id="Rectángulo_295112" data-name="Rectángulo 295112" width="1244.679" height="1249.812" transform="translate(0 -0.002)" fill="none"/>
    </clipPath>
  </defs>
  <g id="Grupo_145894" data-name="Grupo 145894" transform="translate(-178 -1322.65)">
    <g id="Grupo_145441" data-name="Grupo 145441" transform="translate(178 1322.652)">
      <g id="Grupo_145440" data-name="Grupo 145440" clip-path="url(#clip-path)">
        <path id="Trazado_195574" data-name="Trazado 195574" d="M58.462,538.252v170.12A13.638,13.638,0,0,1,44.824,722.01H14.793A13.638,13.638,0,0,1,1.155,708.372V538.252a13.638,13.638,0,0,1,13.638-13.638H44.824a13.638,13.638,0,0,1,13.638,13.638" fill="#fbaed1"/>
        <rect id="Rectángulo_295111" data-name="Rectángulo 295111" width="57.307" height="197.396" rx="13.638" transform="translate(1.155 524.614)" fill="none" stroke="#f40b74" stroke-miterlimit="10" stroke-width="2.31"/>
      </g>
    </g>
    <text id="Historia" transform="translate(216 2002.373) rotate(-90)" fill="#12263f" font-size="30" font-family="Roboto-Bold, Roboto" font-weight="700"><tspan x="0" y="0">Historia</tspan></text>
    <text id="División_del_trabajo_por_edad_y_por_sexo." data-name="División del trabajo por edad y por sexo." transform="translate(544.757 1353.641)" fill="#12263f" font-size="16" font-family="Roboto-Regular, Roboto"><tspan x="0" y="0">División del t</tspan><tspan y="0" letter-spacing="-0.022em">r</tspan><tspan y="0">abajo por edad y por se</tspan><tspan y="0" letter-spacing="-0.011em">x</tspan><tspan y="0">o.</tspan></text>
    <text id="El_hombre_utiliza_de_forma_rudimentaria_la_administración_al_trabajar_en_grupo_por_ejemplo_la_caza_del_mamut." data-name="El hombre utiliza de forma rudimentaria, la administración, al trabajar en grupo; por ejemplo, la caza del mamut." transform="translate(544.757 1389.641)" fill="#12263f" font-size="16" font-family="Roboto-Regular, Roboto"><tspan x="0" y="0">El homb</tspan><tspan y="0" letter-spacing="-0.009em">r</tspan><tspan y="0">e utiliza de forma rudimentaria, la administ</tspan><tspan y="0" letter-spacing="-0.024em">r</tspan><tspan y="0">ación, al t</tspan><tspan y="0" letter-spacing="-0.02em">r</tspan><tspan y="0">abajar en grupo; por ejemplo, la caza del mamut.</tspan></text>
    <text id="En_esta_época_las_personas_se_organizaban_en_grupos_de_trabajo_llamados_horda_clan_tribu_matriarcado_y_" data-name="En esta época las personas se organizaban en grupos de trabajo llamados horda, clan, tribu, matriarcado y " transform="translate(544.757 1425.641)" fill="#12263f" font-size="16" font-family="Roboto-Regular, Roboto"><tspan x="0" y="0">En esta época las personas se o</tspan><tspan y="0" letter-spacing="-0.013em">r</tspan><tspan y="0">ganizaban en grupos de t</tspan><tspan y="0" letter-spacing="-0.022em">r</tspan><tspan y="0">abajo llamados ho</tspan><tspan y="0" letter-spacing="-0.01em">r</tspan><tspan y="0">da, clan, tribu, matria</tspan><tspan y="0" letter-spacing="-0.009em">r</tspan><tspan y="0">cado y </tspan></text>
    <text id="patriarcado_donde_un_líder_organizaba_a_las_personas_y_a_los_recursos_para_conseguir_el_objetivo_en_común." data-name="patriarcado, donde un líder organizaba a las personas y a los recursos para conseguir el objetivo en común." transform="translate(544.757 1443.641)" fill="#12263f" font-size="16" font-family="Roboto-Regular, Roboto"><tspan x="0" y="0">patria</tspan><tspan y="0" letter-spacing="-0.009em">r</tspan><tspan y="0">cado, donde un líder o</tspan><tspan y="0" letter-spacing="-0.01em">r</tspan><tspan y="0">ganizaba a las personas y a los </tspan><tspan y="0" letter-spacing="-0.015em">r</tspan><tspan y="0">ecursos pa</tspan><tspan y="0" letter-spacing="-0.019em">r</tspan><tspan y="0">a conseguir el objeti</tspan><tspan y="0" letter-spacing="-0.009em">v</tspan><tspan y="0">o en común.</tspan></text>
    <g id="Grupo_145443" data-name="Grupo 145443" transform="translate(178 1322.652)">
      <g id="Grupo_145442" data-name="Grupo 145442" clip-path="url(#clip-path)">
        <path id="Trazado_195575" data-name="Trazado 195575" d="M289.483,94.8H165.072a11.811,11.811,0,0,1-11.81-11.811V49.3a11.811,11.811,0,0,1,11.81-11.811H289.483A11.811,11.811,0,0,1,301.293,49.3V82.989A11.811,11.811,0,0,1,289.483,94.8" fill="#fdd7ae"/>
        <path id="Rectángulo_295113" data-name="Rectángulo 295113" d="M11.811,0H136.222a11.81,11.81,0,0,1,11.81,11.81V45.5a11.811,11.811,0,0,1-11.811,11.811H11.811A11.811,11.811,0,0,1,0,45.5V11.811A11.811,11.811,0,0,1,11.811,0Z" transform="translate(153.262 37.493)" fill="none" stroke="#fcbc77" stroke-miterlimit="10" stroke-width="1.832"/>
      </g>
    </g>
    <text id="Época_" data-name="Época " transform="translate(380.54 1385.209)" fill="#12263f" font-size="18" font-family="Roboto-Bold, Roboto" font-weight="700"><tspan x="0" y="0">Época </tspan></text>
    <text id="primitiva" transform="translate(369.632 1405.207)" fill="#12263f" font-size="18" font-family="Roboto-Bold, Roboto" font-weight="700"><tspan x="0" y="0">primiti</tspan><tspan y="0" letter-spacing="-0.007em">v</tspan><tspan y="0">a</tspan></text>
    <g id="Grupo_145445" data-name="Grupo 145445" transform="translate(178 1322.652)">
      <g id="Grupo_145444" data-name="Grupo 145444" clip-path="url(#clip-path)">
        <path id="Trazado_195576" data-name="Trazado 195576" d="M123.305,1H115.15V1248.81h8.155" fill="none" stroke="#727997" stroke-linecap="round" stroke-linejoin="round" stroke-width="2"/>
        <line id="Línea_920" data-name="Línea 920" x2="7.458" transform="translate(107.692 624.904)" fill="none" stroke="#727997" stroke-linecap="round" stroke-linejoin="round" stroke-width="2"/>
      </g>
    </g>
    <text id="Administración_origen_y_desarrollo" data-name="Administración, origen y desarrollo" transform="translate(264.061 2089.125) rotate(-90)" fill="#12263f" font-size="18" font-family="Roboto-Bold, Roboto" font-weight="700"><tspan x="0" y="0">Administ</tspan><tspan y="0" letter-spacing="-0.014em">r</tspan><tspan y="0">ación, origen y desar</tspan><tspan y="0" letter-spacing="-0.016em">r</tspan><tspan y="0">ollo</tspan></text>
    <g id="Grupo_145447" data-name="Grupo 145447" transform="translate(178 1322.652)">
      <g id="Grupo_145446" data-name="Grupo 145446" clip-path="url(#clip-path)">
        <path id="Trazado_195577" data-name="Trazado 195577" d="M289.483,274.507H165.072a11.811,11.811,0,0,1-11.81-11.811V229.011a11.811,11.811,0,0,1,11.81-11.811H289.483a11.811,11.811,0,0,1,11.81,11.811V262.7a11.811,11.811,0,0,1-11.81,11.811" fill="#fdd7ae"/>
        <path id="Rectángulo_295116" data-name="Rectángulo 295116" d="M11.811,0H136.222a11.81,11.81,0,0,1,11.81,11.81V45.5a11.811,11.811,0,0,1-11.811,11.811H11.811A11.811,11.811,0,0,1,0,45.5V11.811A11.811,11.811,0,0,1,11.811,0Z" transform="translate(153.262 217.2)" fill="none" stroke="#fcbc77" stroke-miterlimit="10" stroke-width="1.832"/>
      </g>
    </g>
    <text id="Período" transform="translate(373.667 1565.469)" fill="#12263f" font-size="18" font-family="Roboto-Bold, Roboto" font-weight="700"><tspan x="0" y="0" letter-spacing="-0.006em">P</tspan><tspan y="0">eríodo</tspan></text>
    <text id="agrícola" transform="translate(372.569 1585.467)" fill="#12263f" font-size="18" font-family="Roboto-Bold, Roboto" font-weight="700"><tspan x="0" y="0">agrícola</tspan></text>
    <g id="Grupo_145449" data-name="Grupo 145449" transform="translate(178 1322.652)">
      <g id="Grupo_145448" data-name="Grupo 145448" clip-path="url(#clip-path)">
        <path id="Trazado_195578" data-name="Trazado 195578" d="M289.483,430.729H165.072a11.811,11.811,0,0,1-11.81-11.811V385.233a11.811,11.811,0,0,1,11.81-11.811H289.483a11.811,11.811,0,0,1,11.81,11.811v33.685a11.811,11.811,0,0,1-11.81,11.811" fill="#fdd7ae"/>
        <path id="Rectángulo_295118" data-name="Rectángulo 295118" d="M11.811,0H136.222a11.81,11.81,0,0,1,11.81,11.81V45.5a11.811,11.811,0,0,1-11.811,11.811H11.811A11.811,11.811,0,0,1,0,45.5V11.811A11.811,11.811,0,0,1,11.811,0Z" transform="translate(153.262 373.422)" fill="none" stroke="#fcbc77" stroke-miterlimit="10" stroke-width="1.832"/>
      </g>
    </g>
    <text id="Antigüedad_" data-name="Antigüedad " transform="translate(358.958 1721.344)" fill="#12263f" font-size="18" font-family="Roboto-Bold, Roboto" font-weight="700"><tspan x="0" y="0" letter-spacing="-0.023em">A</tspan><tspan y="0">ntigüedad </tspan></text>
    <text id="grecolatina" transform="translate(359.786 1741.342)" fill="#12263f" font-size="18" font-family="Roboto-Bold, Roboto" font-weight="700"><tspan x="0" y="0">g</tspan><tspan y="0" letter-spacing="-0.009em">r</tspan><tspan y="0">ecolatina</tspan></text>
    <g id="Grupo_145451" data-name="Grupo 145451" transform="translate(178 1322.652)">
      <g id="Grupo_145450" data-name="Grupo 145450" clip-path="url(#clip-path)">
        <path id="Trazado_195579" data-name="Trazado 195579" d="M289.483,603.108H165.072a11.811,11.811,0,0,1-11.81-11.811V557.612a11.811,11.811,0,0,1,11.81-11.811H289.483a11.811,11.811,0,0,1,11.81,11.811V591.3a11.811,11.811,0,0,1-11.81,11.811" fill="#fdd7ae"/>
        <path id="Rectángulo_295120" data-name="Rectángulo 295120" d="M11.811,0H136.222a11.81,11.81,0,0,1,11.81,11.81V45.5a11.811,11.811,0,0,1-11.811,11.811H11.811A11.811,11.811,0,0,1,0,45.5V11.811A11.811,11.811,0,0,1,11.811,0Z" transform="translate(153.262 545.801)" fill="none" stroke="#fcbc77" stroke-miterlimit="10" stroke-width="1.832"/>
      </g>
    </g>
    <text id="Feudalismo" transform="translate(358.36 1902.492)" fill="#12263f" font-size="18" font-family="Roboto-Bold, Roboto" font-weight="700"><tspan x="0" y="0" letter-spacing="-0.01em">F</tspan><tspan y="0">eudalismo</tspan></text>
    <g id="Grupo_145453" data-name="Grupo 145453" transform="translate(178 1322.652)">
      <g id="Grupo_145452" data-name="Grupo 145452" clip-path="url(#clip-path)">
        <path id="Trazado_195580" data-name="Trazado 195580" d="M289.483,880.067H165.072a11.811,11.811,0,0,1-11.81-11.811V834.571a11.811,11.811,0,0,1,11.81-11.811H289.483a11.811,11.811,0,0,1,11.81,11.811v33.685a11.811,11.811,0,0,1-11.81,11.811" fill="#fdd7ae"/>
        <path id="Rectángulo_295122" data-name="Rectángulo 295122" d="M11.811,0H136.222a11.81,11.81,0,0,1,11.81,11.81V45.5a11.811,11.811,0,0,1-11.811,11.811H11.811A11.811,11.811,0,0,1,0,45.5V11.811A11.811,11.811,0,0,1,11.811,0Z" transform="translate(153.262 822.76)" fill="none" stroke="#fcbc77" stroke-miterlimit="10" stroke-width="1.832"/>
      </g>
    </g>
    <text id="Revolución_" data-name="Revolución " transform="translate(360.523 2170.727)" fill="#12263f" font-size="18" font-family="Roboto-Bold, Roboto" font-weight="700"><tspan x="0" y="0">R</tspan><tspan y="0" letter-spacing="-0.006em">e</tspan><tspan y="0" letter-spacing="-0.007em">v</tspan><tspan y="0">olución </tspan></text>
    <text id="industrial" transform="translate(367.201 2190.725)" fill="#12263f" font-size="18" font-family="Roboto-Bold, Roboto" font-weight="700"><tspan x="0" y="0">industrial</tspan></text>
    <g id="Grupo_145455" data-name="Grupo 145455" transform="translate(178 1322.652)">
      <g id="Grupo_145454" data-name="Grupo 145454" clip-path="url(#clip-path)">
        <path id="Trazado_195581" data-name="Trazado 195581" d="M289.483,1108.51H165.072a11.811,11.811,0,0,1-11.81-11.811v-33.685a11.811,11.811,0,0,1,11.81-11.811H289.483a11.811,11.811,0,0,1,11.81,11.811V1096.7a11.811,11.811,0,0,1-11.81,11.811" fill="#fdd7ae"/>
        <path id="Rectángulo_295124" data-name="Rectángulo 295124" d="M11.811,0H136.222a11.81,11.81,0,0,1,11.81,11.81V45.5a11.811,11.811,0,0,1-11.811,11.811H11.811A11.811,11.811,0,0,1,0,45.5V11.811A11.811,11.811,0,0,1,11.811,0Z" transform="translate(153.262 1051.203)" fill="none" stroke="#fcbc77" stroke-miterlimit="10" stroke-width="1.832"/>
      </g>
    </g>
    <text id="Siglo_XX" data-name="Siglo XX" transform="translate(371.069 2408.404)" fill="#12263f" font-size="18" font-family="Roboto-Bold, Roboto" font-weight="700"><tspan x="0" y="0">Siglo XX</tspan></text>
    <g id="Grupo_145457" data-name="Grupo 145457" transform="translate(178 1322.652)">
      <g id="Grupo_145456" data-name="Grupo 145456" clip-path="url(#clip-path)">
        <path id="Trazado_195582" data-name="Trazado 195582" d="M289.483,1219.576H165.072a11.811,11.811,0,0,1-11.81-11.811V1174.08a11.811,11.811,0,0,1,11.81-11.811H289.483a11.811,11.811,0,0,1,11.81,11.811v33.685a11.811,11.811,0,0,1-11.81,11.811" fill="#fdd7ae"/>
        <path id="Rectángulo_295126" data-name="Rectángulo 295126" d="M11.811,0h124.41a11.811,11.811,0,0,1,11.811,11.811V45.5a11.81,11.81,0,0,1-11.81,11.81H11.811A11.811,11.811,0,0,1,0,45.5V11.811A11.811,11.811,0,0,1,11.811,0Z" transform="translate(153.262 1162.269)" fill="none" stroke="#fcbc77" stroke-miterlimit="10" stroke-width="1.832"/>
      </g>
    </g>
    <text id="Siglo_XXI" data-name="Siglo XXI" transform="translate(368.447 2518.768)" fill="#12263f" font-size="18" font-family="Roboto-Bold, Roboto" font-weight="700"><tspan x="0" y="0">Siglo XXI</tspan></text>
    <g id="Grupo_145459" data-name="Grupo 145459" transform="translate(178 1322.652)">
      <g id="Grupo_145458" data-name="Grupo 145458" clip-path="url(#clip-path)">
        <path id="Trazado_195583" data-name="Trazado 195583" d="M340.9,1h-8.155v130.3H340.9" fill="none" stroke="#727997" stroke-linecap="round" stroke-linejoin="round" stroke-width="2"/>
        <line id="Línea_921" data-name="Línea 921" x2="7.458" transform="translate(325.289 66.146)" fill="none" stroke="#727997" stroke-linecap="round" stroke-linejoin="round" stroke-width="2"/>
      </g>
    </g>
    <text id="Vida_sedentaria." data-name="Vida sedentaria." transform="translate(544.757 1501.969)" fill="#12263f" font-size="16" font-family="Roboto-Regular, Roboto"><tspan x="0" y="0">Vida sedentaria.</tspan></text>
    <text id="Aparición_del_Estado." data-name="Aparición del Estado." transform="translate(544.757 1537.969)" fill="#12263f" font-size="16" font-family="Roboto-Regular, Roboto"><tspan x="0" y="0">Aparición del Estado.</tspan></text>
    <text id="Desarrollo_de_grandes_civilizaciones_apoyándose_en_la_administración_empírica_del_trabajo_colectivo_y_de_los_" data-name="Desarrollo de grandes civilizaciones, apoyándose en la administración empírica del trabajo colectivo y de los " transform="translate(544.757 1573.969)" fill="#12263f" font-size="16" font-family="Roboto-Regular, Roboto"><tspan x="0" y="0">Desar</tspan><tspan y="0" letter-spacing="-0.01em">r</tspan><tspan y="0">ollo de g</tspan><tspan y="0" letter-spacing="-0.02em">r</tspan><tspan y="0">andes civilizaciones, ap</tspan><tspan y="0" letter-spacing="-0.01em">o</tspan><tspan y="0" letter-spacing="-0.007em">y</tspan><tspan y="0">ándose en la administ</tspan><tspan y="0" letter-spacing="-0.023em">r</tspan><tspan y="0">ación empírica del t</tspan><tspan y="0" letter-spacing="-0.02em">r</tspan><tspan y="0">abajo colecti</tspan><tspan y="0" letter-spacing="-0.007em">v</tspan><tspan y="0">o y de los </tspan></text>
    <text id="tributos." transform="translate(544.757 1591.969)" fill="#12263f" font-size="16" font-family="Roboto-Regular, Roboto"><tspan x="0" y="0">tribu</tspan><tspan y="0" letter-spacing="-0.009em">t</tspan><tspan y="0">os.</tspan></text>
    <text id="El_hombre_aplicó_formas_de_administración_en_la_agricultura_prevaleció_la_división_de_trabajo_por_edad_sexo_y_se_" data-name="El hombre aplicó formas de administración en la agricultura, prevaleció la división de trabajo por edad, sexo y se " transform="translate(544.757 1627.969)" fill="#12263f" font-size="16" font-family="Roboto-Regular, Roboto"><tspan x="0" y="0">El homb</tspan><tspan y="0" letter-spacing="-0.009em">r</tspan><tspan y="0">e aplicó formas de administ</tspan><tspan y="0" letter-spacing="-0.022em">r</tspan><tspan y="0">ación en la agricultu</tspan><tspan y="0" letter-spacing="-0.021em">r</tspan><tspan y="0">a, p</tspan><tspan y="0" letter-spacing="-0.009em">r</tspan><tspan y="0" letter-spacing="-0.006em">e</tspan><tspan y="0" letter-spacing="-0.007em">v</tspan><tspan y="0">aleció la división de t</tspan><tspan y="0" letter-spacing="-0.023em">r</tspan><tspan y="0">abajo por edad, se</tspan><tspan y="0" letter-spacing="-0.011em">x</tspan><tspan y="0">o y se </tspan></text>
    <text id="acentuó_la_organización_de_tipo_matriarcal." data-name="acentuó la organización de tipo matriarcal." transform="translate(544.757 1645.969)" fill="#12263f" font-size="16" font-family="Roboto-Regular, Roboto"><tspan x="0" y="0">acentuó la o</tspan><tspan y="0" letter-spacing="-0.01em">r</tspan><tspan y="0">ganización de tipo matria</tspan><tspan y="0" letter-spacing="-0.011em">r</tspan><tspan y="0">cal.</tspan></text>
    <g id="Grupo_145461" data-name="Grupo 145461" transform="translate(178 1322.652)">
      <g id="Grupo_145460" data-name="Grupo 145460" clip-path="url(#clip-path)">
        <path id="Trazado_195584" data-name="Trazado 195584" d="M340.9,153.886h-8.155V337.82H340.9" fill="none" stroke="#727997" stroke-linecap="round" stroke-linejoin="round" stroke-width="2"/>
        <line id="Línea_922" data-name="Línea 922" x2="7.458" transform="translate(325.289 245.854)" fill="none" stroke="#727997" stroke-linecap="round" stroke-linejoin="round" stroke-width="2"/>
      </g>
    </g>
    <text id="Aparición_del_esclavismo." data-name="Aparición del esclavismo." transform="translate(544.757 1709.803)" fill="#12263f" font-size="16" font-family="Roboto-Regular, Roboto"><tspan x="0" y="0">Aparición del escl</tspan><tspan y="0" letter-spacing="-0.008em">a</tspan><tspan y="0">vismo.</tspan></text>
    <text id="Aplicación_de_la_administración_mediante_una_estricta_supervisión_del_trabajo_y_sanciones_de_tipo_físico_como_forma_" data-name="Aplicación de la administración, mediante una estricta supervisión del trabajo y sanciones de tipo físico como forma " transform="translate(544.757 1745.803)" fill="#12263f" font-size="16" font-family="Roboto-Regular, Roboto"><tspan x="0" y="0">Aplicación de la administ</tspan><tspan y="0" letter-spacing="-0.022em">r</tspan><tspan y="0">ación, mediante una estricta supe</tspan><tspan y="0" letter-spacing="0.005em">r</tspan><tspan y="0">visión del t</tspan><tspan y="0" letter-spacing="-0.021em">r</tspan><tspan y="0">abajo y sanciones de tipo físico como forma </tspan></text>
    <text id="discipinaria." transform="translate(544.757 1763.803)" fill="#12263f" font-size="16" font-family="Roboto-Regular, Roboto"><tspan x="0" y="0">discipinaria.</tspan></text>
    <g id="Grupo_145463" data-name="Grupo 145463" transform="translate(178 1322.652)">
      <g id="Grupo_145462" data-name="Grupo 145462" clip-path="url(#clip-path)">
        <path id="Trazado_195585" data-name="Trazado 195585" d="M340.9,354.161h-8.155v95.828H340.9" fill="none" stroke="#727997" stroke-linecap="round" stroke-linejoin="round" stroke-width="2"/>
        <line id="Línea_923" data-name="Línea 923" x2="7.458" transform="translate(325.289 402.075)" fill="none" stroke="#727997" stroke-linecap="round" stroke-linejoin="round" stroke-width="2"/>
      </g>
    </g>
    <text id="Inicialmente_la_administración_de_los_feudos_se_efectúa_de_acuerdo_con_el_criterio_del_señor_feudal." data-name="Inicialmente, la administración de los feudos se efectúa de acuerdo con el criterio del señor feudal." transform="translate(544.757 1818.373)" fill="#12263f" font-size="16" font-family="Roboto-Regular, Roboto"><tspan x="0" y="0">Inicialmente, la administ</tspan><tspan y="0" letter-spacing="-0.023em">r</tspan><tspan y="0">ación de los </tspan><tspan y="0" letter-spacing="-0.013em">f</tspan><tspan y="0">eudos se e</tspan><tspan y="0" letter-spacing="-0.013em">f</tspan><tspan y="0">ectúa de acue</tspan><tspan y="0" letter-spacing="-0.009em">r</tspan><tspan y="0">do con el criterio del señor </tspan><tspan y="0" letter-spacing="-0.014em">f</tspan><tspan y="0">eudal.</tspan></text>
    <text id="Posteriormente_los_siervos_se_independizan_y_aparecen_los_talleres_artesanales." data-name="Posteriormente, los siervos se independizan, y aparecen los talleres artesanales." transform="translate(544.757 1854.373)" fill="#12263f" font-size="16" font-family="Roboto-Regular, Roboto"><tspan x="0" y="0" letter-spacing="-0.006em">P</tspan><tspan y="0">osteriormente, los sie</tspan><tspan y="0" letter-spacing="0.006em">r</tspan><tspan y="0" letter-spacing="-0.007em">v</tspan><tspan y="0">os se independizan, y apa</tspan><tspan y="0" letter-spacing="-0.013em">r</tspan><tspan y="0">ecen los talle</tspan><tspan y="0" letter-spacing="-0.012em">r</tspan><tspan y="0">es a</tspan><tspan y="0" letter-spacing="0.023em">r</tspan><tspan y="0">tesanales.</tspan></text>
    <text id="Nuevas_formas_de_administración:_estructuras_de_trabajo_extensas_niveles_de_supervisión_escasos." data-name="Nuevas formas de administración: estructuras de trabajo extensas, niveles de supervisión escasos." transform="translate(544.757 1890.373)" fill="#12263f" font-size="16" font-family="Roboto-Regular, Roboto"><tspan x="0" y="0">Nu</tspan><tspan y="0" letter-spacing="-0.006em">e</tspan><tspan y="0" letter-spacing="-0.007em">v</tspan><tspan y="0">as formas de administ</tspan><tspan y="0" letter-spacing="-0.021em">r</tspan><tspan y="0">ación: estructu</tspan><tspan y="0" letter-spacing="-0.019em">r</tspan><tspan y="0">as de t</tspan><tspan y="0" letter-spacing="-0.021em">r</tspan><tspan y="0">abajo extensas, ni</tspan><tspan y="0" letter-spacing="-0.009em">v</tspan><tspan y="0">eles de supe</tspan><tspan y="0" letter-spacing="0.006em">r</tspan><tspan y="0">visión escasos.</tspan></text>
    <text id="Surgen_los_gremios_antecedentes_del_sindicato_." data-name="Surgen los gremios (antecedentes del sindicato)." transform="translate(544.757 1926.373)" fill="#12263f" font-size="16" font-family="Roboto-Regular, Roboto"><tspan x="0" y="0">Su</tspan><tspan y="0" letter-spacing="-0.008em">r</tspan><tspan y="0">gen los g</tspan><tspan y="0" letter-spacing="-0.01em">r</tspan><tspan y="0">emios (antecedentes del sindica</tspan><tspan y="0" letter-spacing="-0.014em">t</tspan><tspan y="0">o).</tspan></text>
    <text id="Se_caracterizo_por_el_régimen_de_la_servidumbre_en_donde_la_administración_estaba_sujeta_al_criterio_del_señor_feudal_" data-name="Se caracterizo por el régimen de la servidumbre, en donde la administración estaba sujeta al criterio del señor feudal; " transform="translate(544.757 1962.373)" fill="#12263f" font-size="16" font-family="Roboto-Regular, Roboto"><tspan x="0" y="0">Se ca</tspan><tspan y="0" letter-spacing="-0.019em">r</tspan><tspan y="0">acteri</tspan><tspan y="0" letter-spacing="-0.007em">z</tspan><tspan y="0">o por el </tspan><tspan y="0" letter-spacing="-0.01em">r</tspan><tspan y="0">égimen de la se</tspan><tspan y="0" letter-spacing="0.005em">r</tspan><tspan y="0">vidumb</tspan><tspan y="0" letter-spacing="-0.008em">r</tspan><tspan y="0">e, en donde la administ</tspan><tspan y="0" letter-spacing="-0.023em">r</tspan><tspan y="0">ación estaba sujeta al criterio del señor </tspan><tspan y="0" letter-spacing="-0.017em">f</tspan><tspan y="0">eudal; </tspan></text>
    <text id="al_terminar_esta_época_los_siervos_se_convirtieron_en_trabajadores_independientes_de_sistemas_de_oficios_con_nuevas_" data-name="al terminar esta época, los siervos se convirtieron en trabajadores independientes de sistemas de oficios con nuevas " transform="translate(544.757 1980.373)" fill="#12263f" font-size="16" font-family="Roboto-Regular, Roboto"><tspan x="0" y="0">al terminar esta época, los sie</tspan><tspan y="0" letter-spacing="0.004em">r</tspan><tspan y="0" letter-spacing="-0.007em">v</tspan><tspan y="0">os se convi</tspan><tspan y="0" letter-spacing="0.023em">r</tspan><tspan y="0">tie</tspan><tspan y="0" letter-spacing="-0.01em">r</tspan><tspan y="0">on en t</tspan><tspan y="0" letter-spacing="-0.021em">r</tspan><tspan y="0">abajado</tspan><tspan y="0" letter-spacing="-0.009em">r</tspan><tspan y="0">es independientes de sistemas de oficios con nu</tspan><tspan y="0" letter-spacing="-0.014em">e</tspan><tspan y="0" letter-spacing="-0.007em">v</tspan><tspan y="0">as </tspan></text>
    <text id="estructuras." transform="translate(544.757 1998.373)" fill="#12263f" font-size="16" font-family="Roboto-Regular, Roboto"><tspan x="0" y="0">estructu</tspan><tspan y="0" letter-spacing="-0.019em">r</tspan><tspan y="0">as.</tspan></text>
    <g id="Grupo_145465" data-name="Grupo 145465" transform="translate(178 1322.652)">
      <g id="Grupo_145464" data-name="Grupo 145464" clip-path="url(#clip-path)">
        <path id="Trazado_195586" data-name="Trazado 195586" d="M340.9,464.73h-8.155V684.179H340.9" fill="none" stroke="#727997" stroke-linecap="round" stroke-linejoin="round" stroke-width="2"/>
        <line id="Línea_924" data-name="Línea 924" x2="7.458" transform="translate(325.289 574.454)" fill="none" stroke="#727997" stroke-linecap="round" stroke-linejoin="round" stroke-width="2"/>
      </g>
    </g>
    <text id="Centralización_de_la_producción." data-name="Centralización de la producción." transform="translate(544.757 2049.701)" fill="#12263f" font-size="16" font-family="Roboto-Regular, Roboto"><tspan x="0" y="0">Cent</tspan><tspan y="0" letter-spacing="-0.02em">r</tspan><tspan y="0">alización de la p</tspan><tspan y="0" letter-spacing="-0.012em">r</tspan><tspan y="0">oducción.</tspan></text>
    <text id="Auge_industrial." data-name="Auge industrial." transform="translate(544.757 2085.701)" fill="#12263f" font-size="16" font-family="Roboto-Regular, Roboto"><tspan x="0" y="0" letter-spacing="-0.005em">A</tspan><tspan y="0">uge industrial.</tspan></text>
    <text id="Administración_de_tipo_coercitivo." data-name="Administración de tipo coercitivo." transform="translate(544.757 2121.701)" fill="#12263f" font-size="16" font-family="Roboto-Regular, Roboto"><tspan x="0" y="0">Administ</tspan><tspan y="0" letter-spacing="-0.02em">r</tspan><tspan y="0">ación de tipo coe</tspan><tspan y="0" letter-spacing="-0.01em">r</tspan><tspan y="0">citi</tspan><tspan y="0" letter-spacing="-0.007em">v</tspan><tspan y="0">o.</tspan></text>
    <text id="Explotación_humana_del_trabajador." data-name="Explotación humana del trabajador." transform="translate(544.757 2157.701)" fill="#12263f" font-size="16" font-family="Roboto-Regular, Roboto"><tspan x="0" y="0">Explotación humana del t</tspan><tspan y="0" letter-spacing="-0.021em">r</tspan><tspan y="0">abajado</tspan><tspan y="0" letter-spacing="-0.06em">r</tspan><tspan y="0">.</tspan></text>
    <text id="Estructuras_de_trabajo_más_complejas." data-name="Estructuras de trabajo más complejas." transform="translate(544.757 2193.701)" fill="#12263f" font-size="16" font-family="Roboto-Regular, Roboto"><tspan x="0" y="0">Estructu</tspan><tspan y="0" letter-spacing="-0.018em">r</tspan><tspan y="0">as de t</tspan><tspan y="0" letter-spacing="-0.021em">r</tspan><tspan y="0">abajo más complejas.</tspan></text>
    <text id="Surgen_especialistas_dedicados_a_manejar_problemas_de_administración." data-name="Surgen especialistas dedicados a manejar problemas de administración." transform="translate(544.757 2229.701)" fill="#12263f" font-size="16" font-family="Roboto-Regular, Roboto"><tspan x="0" y="0">Su</tspan><tspan y="0" letter-spacing="-0.008em">r</tspan><tspan y="0">gen especialistas dedicados a manejar p</tspan><tspan y="0" letter-spacing="-0.015em">r</tspan><tspan y="0">oblemas de administ</tspan><tspan y="0" letter-spacing="-0.022em">r</tspan><tspan y="0">ación.</tspan></text>
    <text id="En_esta_etapa_existe_un_gran_cambio_en_la_economía_aparecen_diversos_inventos_y_descubrimientos._" data-name="En esta etapa existe un gran cambio en la economía, aparecen diversos inventos y descubrimientos. " transform="translate(544.757 2265.701)" fill="#12263f" font-size="16" font-family="Roboto-Regular, Roboto"><tspan x="0" y="0">En esta etapa existe un g</tspan><tspan y="0" letter-spacing="-0.025em">r</tspan><tspan y="0">an cambio en la economía, apa</tspan><tspan y="0" letter-spacing="-0.01em">r</tspan><tspan y="0">ecen di</tspan><tspan y="0" letter-spacing="-0.007em">v</tspan><tspan y="0">ersos in</tspan><tspan y="0" letter-spacing="-0.007em">v</tspan><tspan y="0">en</tspan><tspan y="0" letter-spacing="-0.01em">t</tspan><tspan y="0">os y descubrimien</tspan><tspan y="0" letter-spacing="-0.01em">t</tspan><tspan y="0">os. </tspan></text>
    <text id="La_administración_se_caracterizó_por_la_explotación_inhumana_al_trabajador_y_es_así_como_surge_la_administración_" data-name="La administración se caracterizó por la explotación inhumana al trabajador y es así como surge la administración " transform="translate(544.757 2301.701)" fill="#12263f" font-size="16" font-family="Roboto-Regular, Roboto"><tspan x="0" y="0">La administ</tspan><tspan y="0" letter-spacing="-0.021em">r</tspan><tspan y="0">ación se ca</tspan><tspan y="0" letter-spacing="-0.02em">r</tspan><tspan y="0">acteri</tspan><tspan y="0" letter-spacing="-0.007em">zó</tspan><tspan y="0" xml:space="preserve"> por la explotación inhumana al t</tspan><tspan y="0" letter-spacing="-0.023em">r</tspan><tspan y="0">abajador y es así como su</tspan><tspan y="0" letter-spacing="-0.01em">r</tspan><tspan y="0">ge la administ</tspan><tspan y="0" letter-spacing="-0.022em">r</tspan><tspan y="0">ación </tspan></text>
    <text id="como_disciplina._" data-name="como disciplina. " transform="translate(544.757 2319.701)" fill="#12263f" font-size="16" font-family="Roboto-Regular, Roboto"><tspan x="0" y="0">como disciplina. </tspan></text>
    <g id="Grupo_145467" data-name="Grupo 145467" transform="translate(178 1322.652)">
      <g id="Grupo_145466" data-name="Grupo 145466" clip-path="url(#clip-path)">
        <path id="Trazado_195587" data-name="Trazado 195587" d="M340.9,698.06h-8.155v306.708H340.9" fill="none" stroke="#727997" stroke-linecap="round" stroke-linejoin="round" stroke-width="2"/>
        <line id="Línea_925" data-name="Línea 925" x2="7.458" transform="translate(325.289 851.414)" fill="none" stroke="#727997" stroke-linecap="round" stroke-linejoin="round" stroke-width="2"/>
      </g>
    </g>
    <text id="Gran_desarrollo_tecnológico_e_industrial." data-name="Gran desarrollo tecnológico e industrial." transform="translate(544.757 2376.377)" fill="#12263f" font-size="16" font-family="Roboto-Regular, Roboto"><tspan x="0" y="0">G</tspan><tspan y="0" letter-spacing="-0.019em">r</tspan><tspan y="0">an desar</tspan><tspan y="0" letter-spacing="-0.01em">r</tspan><tspan y="0">ollo tecnológico e industrial.</tspan></text>
    <text id="Surge_la_administración_científica." data-name="Surge la administración científica." transform="translate(544.757 2412.377)" fill="#12263f" font-size="16" font-family="Roboto-Regular, Roboto"><tspan x="0" y="0">Su</tspan><tspan y="0" letter-spacing="-0.008em">r</tspan><tspan y="0">ge la administ</tspan><tspan y="0" letter-spacing="-0.022em">r</tspan><tspan y="0">ación científica.</tspan></text>
    <text id="Aparecen_numerosos_investigadores_de_la_administración_teniendo_esta_un_desarrollo_y_proyección_definitivos." data-name="Aparecen numerosos investigadores de la administración, teniendo esta un desarrollo y proyección definitivos." transform="translate(544.757 2448.377)" fill="#12263f" font-size="16" font-family="Roboto-Regular, Roboto"><tspan x="0" y="0">Apa</tspan><tspan y="0" letter-spacing="-0.008em">r</tspan><tspan y="0">ecen nume</tspan><tspan y="0" letter-spacing="-0.01em">r</tspan><tspan y="0">osos in</tspan><tspan y="0" letter-spacing="-0.007em">v</tspan><tspan y="0">estigado</tspan><tspan y="0" letter-spacing="-0.01em">r</tspan><tspan y="0">es de la administ</tspan><tspan y="0" letter-spacing="-0.023em">r</tspan><tspan y="0">ación, teniendo esta un desar</tspan><tspan y="0" letter-spacing="-0.013em">r</tspan><tspan y="0">ollo y p</tspan><tspan y="0" letter-spacing="-0.01em">r</tspan><tspan y="0" letter-spacing="-0.007em">o</tspan><tspan y="0" letter-spacing="-0.006em">y</tspan><tspan y="0">ección definiti</tspan><tspan y="0" letter-spacing="-0.008em">v</tspan><tspan y="0">os.</tspan></text>
    <g id="Grupo_145469" data-name="Grupo 145469" transform="translate(178 1322.652)">
      <g id="Grupo_145468" data-name="Grupo 145468" clip-path="url(#clip-path)">
        <path id="Trazado_195588" data-name="Trazado 195588" d="M340.9,1020.734h-8.155v119.192H340.9" fill="none" stroke="#727997" stroke-linecap="round" stroke-linejoin="round" stroke-width="2"/>
        <line id="Línea_926" data-name="Línea 926" x2="7.458" transform="translate(325.289 1080.33)" fill="none" stroke="#727997" stroke-linecap="round" stroke-linejoin="round" stroke-width="2"/>
      </g>
    </g>
    <text id="En_esta_época_se_da_un_gran_desarrollo_tecnológico_e_industrial._La_administración_se_torna_indispensable_en_el_" data-name="En esta época se da un gran desarrollo tecnológico e industrial. La administración se torna indispensable en el " transform="translate(544.757 2513.203)" fill="#12263f" font-size="16" font-family="Roboto-Regular, Roboto"><tspan x="0" y="0">En esta época se da un g</tspan><tspan y="0" letter-spacing="-0.023em">r</tspan><tspan y="0">an desar</tspan><tspan y="0" letter-spacing="-0.01em">r</tspan><tspan y="0">ollo tecnológico e industrial. La administ</tspan><tspan y="0" letter-spacing="-0.023em">r</tspan><tspan y="0">ación se </tspan><tspan y="0" letter-spacing="-0.011em">t</tspan><tspan y="0">orna indispensable en el </tspan></text>
    <text id="manejo_de_cualquier_tipo_de_empresa_contando_con_una_cultura_organizacional_exitosa." data-name="manejo de cualquier tipo de empresa, contando con una cultura organizacional exitosa." transform="translate(544.757 2531.203)" fill="#12263f" font-size="16" font-family="Roboto-Regular, Roboto"><tspan x="0" y="0">manejo de cualquier tipo de emp</tspan><tspan y="0" letter-spacing="-0.011em">r</tspan><tspan y="0">esa, contando con una cultu</tspan><tspan y="0" letter-spacing="-0.02em">r</tspan><tspan y="0">a o</tspan><tspan y="0" letter-spacing="-0.009em">r</tspan><tspan y="0">ganizacional exi</tspan><tspan y="0" letter-spacing="-0.012em">t</tspan><tspan y="0">osa.</tspan></text>
    <g id="Grupo_145471" data-name="Grupo 145471" transform="translate(178 1322.652)">
      <g id="Grupo_145470" data-name="Grupo 145470" clip-path="url(#clip-path)">
        <path id="Trazado_195589" data-name="Trazado 195589" d="M340.9,1159.561h-8.155v62.723H340.9" fill="none" stroke="#727997" stroke-linecap="round" stroke-linejoin="round" stroke-width="2"/>
        <line id="Línea_927" data-name="Línea 927" x2="7.458" transform="translate(325.289 1190.922)" fill="none" stroke="#727997" stroke-linecap="round" stroke-linejoin="round" stroke-width="2"/>
        <line id="Línea_928" data-name="Línea 928" x2="5.876" transform="translate(354.904 143.506)" fill="none" stroke="#727997" stroke-linecap="round" stroke-linejoin="round" stroke-width="2.35"/>
        <line id="Línea_929" data-name="Línea 929" x2="859.311" transform="translate(372.471 143.506)" fill="none" stroke="#727997" stroke-linecap="round" stroke-linejoin="round" stroke-width="2.35" stroke-dasharray="11.691 11.691"/>
        <line id="Línea_930" data-name="Línea 930" x2="5.876" transform="translate(1237.628 143.506)" fill="none" stroke="#727997" stroke-linecap="round" stroke-linejoin="round" stroke-width="2.35"/>
        <line id="Línea_931" data-name="Línea 931" x2="5.876" transform="translate(354.904 348.895)" fill="none" stroke="#727997" stroke-linecap="round" stroke-linejoin="round" stroke-width="2.35"/>
        <line id="Línea_932" data-name="Línea 932" x2="859.311" transform="translate(372.471 348.895)" fill="none" stroke="#727997" stroke-linecap="round" stroke-linejoin="round" stroke-width="2.35" stroke-dasharray="11.691 11.691"/>
        <line id="Línea_933" data-name="Línea 933" x2="5.876" transform="translate(1237.628 348.895)" fill="none" stroke="#727997" stroke-linecap="round" stroke-linejoin="round" stroke-width="2.35"/>
        <line id="Línea_934" data-name="Línea 934" x2="5.876" transform="translate(354.904 458.202)" fill="none" stroke="#727997" stroke-linecap="round" stroke-linejoin="round" stroke-width="2.35"/>
        <line id="Línea_935" data-name="Línea 935" x2="859.311" transform="translate(372.471 458.202)" fill="none" stroke="#727997" stroke-linecap="round" stroke-linejoin="round" stroke-width="2.35" stroke-dasharray="11.691 11.691"/>
        <line id="Línea_936" data-name="Línea 936" x2="5.876" transform="translate(1237.628 458.202)" fill="none" stroke="#727997" stroke-linecap="round" stroke-linejoin="round" stroke-width="2.35"/>
        <line id="Línea_937" data-name="Línea 937" x2="5.876" transform="translate(354.904 691.757)" fill="none" stroke="#727997" stroke-linecap="round" stroke-linejoin="round" stroke-width="2.35"/>
        <line id="Línea_938" data-name="Línea 938" x2="859.311" transform="translate(372.471 691.757)" fill="none" stroke="#727997" stroke-linecap="round" stroke-linejoin="round" stroke-width="2.35" stroke-dasharray="11.691 11.691"/>
        <line id="Línea_939" data-name="Línea 939" x2="5.876" transform="translate(1237.628 691.757)" fill="none" stroke="#727997" stroke-linecap="round" stroke-linejoin="round" stroke-width="2.35"/>
        <line id="Línea_940" data-name="Línea 940" x2="5.876" transform="translate(354.904 1015.321)" fill="none" stroke="#727997" stroke-linecap="round" stroke-linejoin="round" stroke-width="2.35"/>
        <line id="Línea_941" data-name="Línea 941" x2="859.311" transform="translate(372.471 1015.321)" fill="none" stroke="#727997" stroke-linecap="round" stroke-linejoin="round" stroke-width="2.35" stroke-dasharray="11.691 11.691"/>
        <line id="Línea_942" data-name="Línea 942" x2="5.876" transform="translate(1237.628 1015.321)" fill="none" stroke="#727997" stroke-linecap="round" stroke-linejoin="round" stroke-width="2.35"/>
        <line id="Línea_943" data-name="Línea 943" x2="5.876" transform="translate(354.904 1153.755)" fill="none" stroke="#727997" stroke-linecap="round" stroke-linejoin="round" stroke-width="2.35"/>
        <line id="Línea_944" data-name="Línea 944" x2="859.311" transform="translate(372.471 1153.755)" fill="none" stroke="#727997" stroke-linecap="round" stroke-linejoin="round" stroke-width="2.35" stroke-dasharray="11.691 11.691"/>
        <line id="Línea_945" data-name="Línea 945" x2="5.876" transform="translate(1237.628 1153.755)" fill="none" stroke="#727997" stroke-linecap="round" stroke-linejoin="round" stroke-width="2.35"/>
        <path id="Trazado_195590" data-name="Trazado 195590" d="M349.84,24.052a5.064,5.064,0,1,1,5.064,5.064,5.064,5.064,0,0,1-5.064-5.064" fill="#206897"/>
        <path id="Trazado_195591" data-name="Trazado 195591" d="M349.84,64.325a5.064,5.064,0,1,1,5.064,5.064,5.064,5.064,0,0,1-5.064-5.064" fill="#206897"/>
        <path id="Trazado_195592" data-name="Trazado 195592" d="M349.84,97.679a5.064,5.064,0,1,1,5.064,5.064,5.064,5.064,0,0,1-5.064-5.064" fill="#206897"/>
        <path id="Trazado_195593" data-name="Trazado 195593" d="M349.84,172.381a5.064,5.064,0,1,1,5.064,5.064,5.064,5.064,0,0,1-5.064-5.064" fill="#206897"/>
        <path id="Trazado_195594" data-name="Trazado 195594" d="M349.84,209.3a5.064,5.064,0,1,1,5.064,5.064,5.064,5.064,0,0,1-5.064-5.064" fill="#206897"/>
        <path id="Trazado_195595" data-name="Trazado 195595" d="M349.84,246.212a5.064,5.064,0,1,1,5.064,5.064,5.064,5.064,0,0,1-5.064-5.064" fill="#206897"/>
        <path id="Trazado_195596" data-name="Trazado 195596" d="M349.84,300.75a5.064,5.064,0,1,1,5.064,5.065,5.063,5.063,0,0,1-5.064-5.065" fill="#206897"/>
        <path id="Trazado_195597" data-name="Trazado 195597" d="M349.84,380.216a5.064,5.064,0,1,1,5.064,5.064,5.064,5.064,0,0,1-5.064-5.064" fill="#206897"/>
        <path id="Trazado_195598" data-name="Trazado 195598" d="M349.84,417.932A5.064,5.064,0,1,1,354.9,423a5.064,5.064,0,0,1-5.064-5.064" fill="#206897"/>
        <path id="Trazado_195599" data-name="Trazado 195599" d="M349.84,490.521a5.064,5.064,0,1,1,5.064,5.064,5.064,5.064,0,0,1-5.064-5.064" fill="#206897"/>
        <path id="Trazado_195600" data-name="Trazado 195600" d="M349.84,525.547a5.064,5.064,0,1,1,5.064,5.065,5.063,5.063,0,0,1-5.064-5.065" fill="#206897"/>
        <path id="Trazado_195601" data-name="Trazado 195601" d="M349.84,563.21a5.064,5.064,0,1,1,5.064,5.064,5.064,5.064,0,0,1-5.064-5.064" fill="#206897"/>
        <path id="Trazado_195602" data-name="Trazado 195602" d="M349.84,599.336A5.064,5.064,0,1,1,354.9,604.4a5.064,5.064,0,0,1-5.064-5.064" fill="#206897"/>
        <path id="Trazado_195603" data-name="Trazado 195603" d="M349.84,633.462a5.064,5.064,0,1,1,5.064,5.064,5.064,5.064,0,0,1-5.064-5.064" fill="#206897"/>
        <path id="Trazado_195604" data-name="Trazado 195604" d="M349.84,720.114a5.064,5.064,0,1,1,5.064,5.064,5.064,5.064,0,0,1-5.064-5.064" fill="#206897"/>
        <path id="Trazado_195605" data-name="Trazado 195605" d="M349.84,756.462a5.064,5.064,0,1,1,5.064,5.064,5.064,5.064,0,0,1-5.064-5.064" fill="#206897"/>
        <path id="Trazado_195606" data-name="Trazado 195606" d="M349.84,792.114a5.064,5.064,0,1,1,5.064,5.064,5.064,5.064,0,0,1-5.064-5.064" fill="#206897"/>
        <path id="Trazado_195607" data-name="Trazado 195607" d="M349.84,828.662a5.064,5.064,0,1,1,5.064,5.064,5.064,5.064,0,0,1-5.064-5.064" fill="#206897"/>
        <path id="Trazado_195608" data-name="Trazado 195608" d="M349.84,865.529a5.064,5.064,0,1,1,5.064,5.064,5.064,5.064,0,0,1-5.064-5.064" fill="#206897"/>
        <path id="Trazado_195609" data-name="Trazado 195609" d="M349.84,900.4a5.064,5.064,0,1,1,5.064,5.064,5.064,5.064,0,0,1-5.064-5.064" fill="#206897"/>
        <path id="Trazado_195610" data-name="Trazado 195610" d="M349.84,937.265a5.064,5.064,0,1,1,5.064,5.064,5.064,5.064,0,0,1-5.064-5.064" fill="#206897"/>
        <path id="Trazado_195611" data-name="Trazado 195611" d="M349.84,974.138A5.064,5.064,0,1,1,354.9,979.2a5.064,5.064,0,0,1-5.064-5.064" fill="#206897"/>
        <path id="Trazado_195612" data-name="Trazado 195612" d="M349.84,1047.788a5.064,5.064,0,1,1,5.064,5.064,5.064,5.064,0,0,1-5.064-5.064" fill="#206897"/>
        <path id="Trazado_195613" data-name="Trazado 195613" d="M349.84,1084.921a5.064,5.064,0,1,1,5.064,5.064,5.064,5.064,0,0,1-5.064-5.064" fill="#206897"/>
        <path id="Trazado_195614" data-name="Trazado 195614" d="M349.84,1120.172a5.064,5.064,0,1,1,5.064,5.064,5.064,5.064,0,0,1-5.064-5.064" fill="#206897"/>
        <path id="Trazado_195615" data-name="Trazado 195615" d="M349.84,1184.615a5.064,5.064,0,1,1,5.064,5.064,5.064,5.064,0,0,1-5.064-5.064" fill="#206897"/>
      </g>
    </g>
  </g>
</svg>
